<svg version="1.1" id="Layer_1" xmlns="http://www.w3.org/2000/svg" xmlns:xlink="http://www.w3.org/1999/xlink" x="0px" y="0px"
	 width="100%" viewBox="0 0 661 74" enable-background="new 0 0 661 74" xml:space="preserve">
<path fill="#F5F5F6" opacity="1.000000" stroke="none" 
	d="
M1.000000,6.000000 
	C1.000000,4.334396 1.000000,2.668792 1.000000,1.037543 
	C221.333344,1.037543 441.666687,1.037543 661.986084,1.037543 
	C661.986084,25.716726 661.986084,50.358368 661.979126,75.000000 
	C659.307068,75.000000 656.642090,75.000000 653.562073,74.692703 
	C653.441040,73.607712 653.734985,72.830032 654.112183,71.586182 
	C654.226440,49.801975 654.295959,28.483751 654.197083,7.166306 
	C654.190796,5.819815 652.871582,4.479415 651.687012,3.067875 
	C649.087708,2.984932 646.960815,2.881334 644.842346,2.972615 
	C638.883240,3.229380 632.927551,3.566354 626.537354,3.878352 
	C624.081055,3.870631 622.057861,3.856262 619.714417,3.573093 
	C603.653015,3.193779 587.911926,3.069956 572.170654,3.015282 
	C571.445923,3.012764 570.719177,3.631027 569.597168,3.957337 
	C568.144653,4.010323 567.088318,4.066135 565.778687,3.777254 
	C564.054138,3.273597 562.583008,2.975624 561.111877,2.975404 
	C407.749817,2.952387 254.387756,2.948029 101.025711,2.998231 
	C99.338974,2.998783 97.652489,3.728673 95.569687,4.089233 
	C94.118164,4.027647 93.062836,3.994923 91.715469,3.660545 
	C74.818321,3.261518 58.213245,3.154380 41.608006,3.111263 
	C41.079075,3.109889 40.548439,3.766222 39.684372,4.060560 
	C38.901382,4.040429 38.452610,4.075683 37.753456,3.783452 
	C34.277668,3.640466 31.052263,3.824966 27.649366,3.985611 
	C27.471876,3.961756 27.113714,3.964492 26.684013,3.939643 
	C24.828278,3.890690 23.402243,3.866585 21.688173,3.581101 
	C19.261623,3.211749 17.123108,3.103776 14.737316,2.996724 
	C14.490041,2.997645 13.995493,2.999904 13.775103,2.738823 
	C12.350763,2.696288 11.146812,2.914833 9.627523,3.109375 
	C8.798380,3.385658 8.284575,3.685944 7.428520,4.075263 
	C5.057514,4.776197 3.028757,5.388099 1.000000,6.000000 
z"/>
<path fill="#E0D2BB" opacity="1.000000" stroke="none" 
	d="
M654.028870,72.052353 
	C653.734985,72.830032 653.441040,73.607712 653.073547,74.692703 
	C646.978821,75.000000 640.957703,75.000000 634.462402,74.648956 
	C632.502747,72.448532 631.474609,72.546196 631.000000,75.000000 
	C627.969421,75.000000 624.938782,75.000000 621.437622,74.636833 
	C619.270325,72.470940 617.804199,71.927780 617.000000,75.000000 
	C603.312439,75.000000 589.624878,75.000000 575.452393,74.636887 
	C573.272827,72.482864 571.802368,71.916374 571.000000,75.000000 
	C567.969421,75.000000 564.938782,75.000000 561.458374,74.680473 
	C560.566040,74.030380 560.123535,73.699806 559.681152,73.369247 
	C559.454102,73.912849 559.227051,74.456436 559.000000,75.000008 
	C548.312439,75.000000 537.624878,75.000000 526.399048,74.799973 
	C525.573914,74.733299 525.286926,74.866653 525.000000,75.000000 
	C516.645752,75.000000 508.291534,75.000000 499.472931,74.680664 
	C498.566162,74.031151 498.123810,73.700974 497.681458,73.370804 
	C497.454315,73.913872 497.227173,74.456940 497.000000,75.000000 
	C493.307098,75.000000 489.614166,75.000000 485.431091,74.617142 
	C482.691925,72.404984 480.598450,71.782188 479.000000,75.000000 
	C478.555542,75.000000 478.111115,75.000000 477.316772,74.636948 
	C475.271332,72.476624 473.803528,71.923782 473.000000,75.000000 
	C457.645782,75.000000 442.291534,75.000000 426.434021,74.608917 
	C423.427124,72.765305 420.927521,71.348106 419.000000,75.000000 
	C406.645782,75.000000 394.291534,75.000000 381.462830,74.649551 
	C379.506897,72.463501 378.476532,72.551147 378.000000,75.000000 
	C373.975464,75.000000 369.950897,75.000000 365.393829,74.799789 
	C364.574188,74.733055 364.287109,74.866531 364.000000,75.000000 
	C360.969391,75.000000 357.938812,75.000000 354.458191,74.680969 
	C353.566071,74.032059 353.123962,73.702179 352.681854,73.372292 
	C352.454559,73.914864 352.227264,74.457428 352.000000,75.000000 
	C347.643097,75.000000 343.286194,75.000000 338.459106,74.649139 
	C336.506958,72.463692 335.474701,72.544495 335.000000,75.000000 
	C331.969391,75.000000 328.938812,75.000000 325.458191,74.680939 
	C324.566010,74.031982 324.123810,73.702087 323.681610,73.372192 
	C323.454407,73.914795 323.227203,74.457397 323.000000,75.000000 
	C317.977905,75.000000 312.955811,75.000000 307.461090,74.649399 
	C305.506714,72.462921 304.475922,72.549110 304.000000,75.000000 
	C295.645782,75.000000 287.291534,75.000000 278.472778,74.680916 
	C277.566071,74.031853 277.123871,73.701881 276.681702,73.371902 
	C276.454468,73.914597 276.227234,74.457298 276.000000,75.000000 
	C273.299988,75.000000 270.599976,75.000000 267.380524,74.799866 
	C266.574066,74.733154 266.287018,74.866577 266.000000,75.000000 
	C248.979111,75.000000 231.958206,75.000000 214.451813,74.637253 
	C212.270920,72.475563 210.805161,71.932045 210.000000,75.000000 
	C202.645752,75.000000 195.291504,75.000000 187.463165,74.649208 
	C185.508041,72.467270 184.474930,72.544601 184.000000,75.000000 
	C170.645767,75.000000 157.291550,75.000000 143.451935,74.636993 
	C141.270828,72.475212 139.803406,71.923767 139.000000,75.000000 
	C129.645767,75.000000 120.291542,75.000000 110.472748,74.680862 
	C109.565956,74.031616 109.123734,73.701508 108.681503,73.371399 
	C108.454338,73.914261 108.227165,74.457130 108.000000,75.000000 
	C106.611107,75.000000 105.222221,75.000000 103.242516,74.703339 
	C101.069550,74.356819 99.109665,71.345543 98.000000,75.000000 
	C97.555557,75.000000 97.111107,75.000000 96.211121,74.737328 
	C95.170387,74.649773 94.585197,74.824883 94.000000,75.000000 
	C65.645775,75.000000 37.291542,75.000000 8.517153,74.620636 
	C7.933545,73.501099 7.770098,72.760925 7.717966,71.984146 
	C7.829280,71.947533 8.061803,71.976837 8.397000,72.002121 
	C9.232129,71.663010 9.732060,71.298615 10.614105,70.961380 
	C12.981944,70.312119 14.967671,69.635704 17.255655,69.009499 
	C17.883198,69.851143 18.208481,70.642586 18.973690,72.504402 
	C23.903053,72.160103 29.777033,71.751785 35.649765,71.326294 
	C35.774353,71.317253 35.884594,71.110176 36.439583,70.962952 
	C38.929951,70.981712 40.982265,71.033005 43.342049,71.359985 
	C62.533405,71.741501 81.417274,71.855331 100.301315,71.914192 
	C100.864151,71.915939 101.428787,71.340714 102.437805,71.046677 
	C105.260178,71.058975 107.637314,71.059090 110.317230,71.340317 
	C112.266212,71.748611 113.912415,71.987007 115.558647,71.987190 
	C259.620361,72.002876 403.682068,72.003403 547.743774,71.961082 
	C549.489380,71.960571 551.234802,71.392403 553.419678,71.084259 
	C555.909424,71.067963 557.959717,71.056625 560.310059,71.331146 
	C567.700195,71.742271 574.838806,71.398758 581.866943,72.124725 
	C588.886719,72.849861 595.793579,71.822304 602.756165,71.929802 
	C608.475708,72.018112 614.204834,71.488808 620.341919,71.169327 
	C622.807556,70.770088 624.860840,70.434761 627.311157,70.057236 
	C630.149109,69.998802 632.590210,69.982567 635.455322,69.975082 
	C641.233582,70.658722 646.587769,71.333626 652.289795,72.019592 
	C653.101379,72.037888 653.565125,72.045120 654.028870,72.052353 
z"/>
<path fill="#F1F0ED" opacity="1.000000" stroke="none" 
	d="
M1.000000,6.468657 
	C3.028757,5.388099 5.057514,4.776197 7.497604,4.538905 
	C7.959893,27.267956 8.010848,49.622395 8.061803,71.976837 
	C8.061803,71.976837 7.829280,71.947533 7.317386,71.978523 
	C4.870328,72.006348 2.935164,72.003174 1.000000,72.000000 
	C1.000000,50.312439 1.000000,28.624876 1.000000,6.468657 
z"/>
<path fill="#F5F5F6" opacity="1.000000" stroke="none" 
	d="
M1.000000,72.500000 
	C2.935164,72.003174 4.870328,72.006348 7.206072,72.015137 
	C7.770098,72.760925 7.933545,73.501099 8.048496,74.620636 
	C6.000000,75.000000 3.989281,75.107292 2.009046,74.909454 
	C1.613061,74.869896 1.333333,73.666664 1.000000,72.500000 
z"/>
<path fill="#F5F5F6" opacity="1.000000" stroke="none" 
	d="
M419.437500,75.000000 
	C420.927521,71.348106 423.427124,72.765305 425.965332,74.608917 
	C423.958344,75.000000 421.916656,75.000000 419.437500,75.000000 
z"/>
<path fill="#F5F5F6" opacity="1.000000" stroke="none" 
	d="
M479.428467,75.000000 
	C480.598450,71.782188 482.691925,72.404984 484.970459,74.617142 
	C483.285645,75.000000 481.571289,75.000000 479.428467,75.000000 
z"/>
<path fill="#F5F5F6" opacity="1.000000" stroke="none" 
	d="
M473.399994,75.000000 
	C473.803528,71.923782 475.271332,72.476624 476.983459,74.636948 
	C475.933319,75.000000 474.866669,75.000000 473.399994,75.000000 
z"/>
<path fill="#F5F5F6" opacity="1.000000" stroke="none" 
	d="
M617.399963,75.000000 
	C617.804199,71.927780 619.270325,72.470940 620.983521,74.636833 
	C619.933289,75.000000 618.866638,75.000000 617.399963,75.000000 
z"/>
<path fill="#F5F5F6" opacity="1.000000" stroke="none" 
	d="
M571.399963,75.000000 
	C571.802368,71.916374 573.272827,72.482864 574.983765,74.636887 
	C573.933289,75.000000 572.866638,75.000000 571.399963,75.000000 
z"/>
<path fill="#F5F5F6" opacity="1.000000" stroke="none" 
	d="
M210.399994,75.000000 
	C210.805161,71.932045 212.270920,72.475563 213.983154,74.637253 
	C212.933334,75.000000 211.866653,75.000000 210.399994,75.000000 
z"/>
<path fill="#F5F5F6" opacity="1.000000" stroke="none" 
	d="
M139.399994,75.000000 
	C139.803406,71.923767 141.270828,72.475212 142.983276,74.636993 
	C141.933334,75.000000 140.866653,75.000000 139.399994,75.000000 
z"/>
<path fill="#F5F5F6" opacity="1.000000" stroke="none" 
	d="
M98.416664,75.000000 
	C99.109665,71.345543 101.069550,74.356819 102.825851,74.703339 
	C101.611107,75.000000 100.222221,75.000000 98.416664,75.000000 
z"/>
<path fill="#F5F5F6" opacity="1.000000" stroke="none" 
	d="
M631.375000,75.000000 
	C631.474609,72.546196 632.502747,72.448532 633.994141,74.648956 
	C633.250000,75.000000 632.500000,75.000000 631.375000,75.000000 
z"/>
<path fill="#F5F5F6" opacity="1.000000" stroke="none" 
	d="
M378.375000,75.000000 
	C378.476532,72.551147 379.506897,72.463501 380.994171,74.649551 
	C380.250000,75.000000 379.500000,75.000000 378.375000,75.000000 
z"/>
<path fill="#F5F5F6" opacity="1.000000" stroke="none" 
	d="
M335.375000,75.000000 
	C335.474701,72.544495 336.506958,72.463692 337.994446,74.649139 
	C337.250000,75.000000 336.500000,75.000000 335.375000,75.000000 
z"/>
<path fill="#F5F5F6" opacity="1.000000" stroke="none" 
	d="
M304.375000,75.000000 
	C304.475922,72.549110 305.506714,72.462921 306.994232,74.649399 
	C306.250000,75.000000 305.500000,75.000000 304.375000,75.000000 
z"/>
<path fill="#F5F5F6" opacity="1.000000" stroke="none" 
	d="
M184.375000,75.000000 
	C184.474930,72.544601 185.508041,72.467270 186.994537,74.649208 
	C186.250000,75.000000 185.500000,75.000000 184.375000,75.000000 
z"/>
<path fill="#F5F5F6" opacity="1.000000" stroke="none" 
	d="
M276.333313,75.000000 
	C276.227234,74.457298 276.454468,73.914597 276.681702,73.371902 
	C277.123871,73.701881 277.566071,74.031853 278.004120,74.680916 
	C277.555542,75.000000 277.111115,75.000000 276.333313,75.000000 
z"/>
<path fill="#F5F5F6" opacity="1.000000" stroke="none" 
	d="
M108.333328,75.000000 
	C108.227165,74.457130 108.454338,73.914261 108.681503,73.371399 
	C109.123734,73.701508 109.565956,74.031616 110.004089,74.680862 
	C109.555557,75.000000 109.111107,75.000000 108.333328,75.000000 
z"/>
<path fill="#F5F5F6" opacity="1.000000" stroke="none" 
	d="
M323.333313,75.000000 
	C323.227203,74.457397 323.454407,73.914795 323.681610,73.372192 
	C324.123810,73.702087 324.566010,74.031982 325.004089,74.680939 
	C324.555542,75.000000 324.111115,75.000000 323.333313,75.000000 
z"/>
<path fill="#F5F5F6" opacity="1.000000" stroke="none" 
	d="
M352.333313,75.000000 
	C352.227264,74.457428 352.454559,73.914864 352.681854,73.372292 
	C353.123962,73.702179 353.566071,74.032059 354.004089,74.680969 
	C353.555542,75.000000 353.111115,75.000000 352.333313,75.000000 
z"/>
<path fill="#F5F5F6" opacity="1.000000" stroke="none" 
	d="
M497.333344,75.000000 
	C497.227173,74.456940 497.454315,73.913872 497.681458,73.370804 
	C498.123810,73.700974 498.566162,74.031151 499.004272,74.680664 
	C498.555542,75.000000 498.111115,75.000000 497.333344,75.000000 
z"/>
<path fill="#F5F5F6" opacity="1.000000" stroke="none" 
	d="
M559.333374,75.000008 
	C559.227051,74.456436 559.454102,73.912849 559.681152,73.369247 
	C560.123535,73.699806 560.566040,74.030380 561.004272,74.680473 
	C560.555542,75.000000 560.111084,75.000000 559.333374,75.000008 
z"/>
<path fill="#F5F5F6" opacity="1.000000" stroke="none" 
	d="
M94.333328,75.000000 
	C94.585197,74.824883 95.170387,74.649773 95.877792,74.737328 
	C95.555557,75.000000 95.111107,75.000000 94.333328,75.000000 
z"/>
<path fill="#F8FAFE" opacity="1.000000" stroke="none" 
	d="
M266.250000,75.000000 
	C266.287018,74.866577 266.574066,74.733154 266.930542,74.799866 
	C267.000000,75.000000 266.500000,75.000000 266.250000,75.000000 
z"/>
<path fill="#F8FAFE" opacity="1.000000" stroke="none" 
	d="
M364.250000,75.000000 
	C364.287109,74.866531 364.574188,74.733055 364.930664,74.799789 
	C365.000000,75.000000 364.500000,75.000000 364.250000,75.000000 
z"/>
<path fill="#F8FAFE" opacity="1.000000" stroke="none" 
	d="
M525.250000,75.000000 
	C525.286926,74.866653 525.573914,74.733299 525.930420,74.799973 
	C526.000000,75.000000 525.500000,75.000000 525.250000,75.000000 
z"/>
<path fill="#F2F3F2" opacity="1.000000" stroke="none" 
	d="
M16.953398,68.959297 
	C14.967671,69.635704 12.981944,70.312119 10.541260,70.502342 
	C10.127245,48.016289 10.168190,26.016430 10.541391,4.008762 
	C11.914264,3.667272 12.954879,3.333588 13.995493,2.999904 
	C13.995493,2.999904 14.490041,2.997645 14.956148,3.274489 
	C16.936382,4.009318 18.450510,4.467302 19.616222,4.977351 
	C18.566168,5.084077 17.864529,5.138739 16.807545,5.271745 
	C16.440647,6.297897 16.429092,7.245704 16.388233,8.391483 
	C16.537697,8.790110 16.738369,8.965743 17.094822,9.359468 
	C17.501247,10.083996 17.773792,10.565408 17.874531,11.326979 
	C17.334576,12.584285 16.966431,13.561433 16.678062,14.326836 
	C18.997253,14.774497 21.000046,15.161085 23.311726,15.707861 
	C24.407051,17.252102 25.193485,18.636156 25.927410,20.073097 
	C25.874903,20.125982 25.769875,20.231743 25.370644,20.191711 
	C21.942656,19.543520 21.337940,21.082386 21.378307,23.766392 
	C21.522917,33.381954 21.368704,43.003674 21.640654,52.614204 
	C21.692478,54.445694 23.168739,56.236874 23.990105,58.020706 
	C23.992413,57.994759 23.941349,57.999996 23.967754,58.332035 
	C23.934231,59.102131 23.874302,59.540184 23.508209,59.962688 
	C22.713736,60.252674 22.225428,60.558216 21.371895,60.931236 
	C20.370380,62.324333 19.734089,63.649956 18.762350,65.017265 
	C17.935734,66.359070 17.444565,67.659180 16.953398,68.959297 
z"/>
<path fill="#DDCCAF" opacity="1.000000" stroke="none" 
	d="
M95.965881,4.118096 
	C97.652489,3.728673 99.338974,2.998783 101.025711,2.998231 
	C254.387756,2.948029 407.749817,2.952387 561.111877,2.975404 
	C562.583008,2.975624 564.054138,3.273597 565.765503,3.741772 
	C566.005676,4.050984 566.072876,4.017991 565.604004,4.011824 
	C561.080933,4.033356 557.026794,4.061056 552.511475,4.056736 
	C439.505188,4.017009 326.959991,4.001154 214.414825,4.006416 
	C179.287003,4.008058 144.159164,4.066741 108.566666,4.067325 
	C104.042480,4.030046 99.982956,4.024754 95.957909,4.033853 
	C95.992378,4.048244 95.965881,4.118096 95.965881,4.118096 
z"/>
<path fill="#A47930" opacity="1.000000" stroke="none" 
	d="
M10.209135,4.016569 
	C10.168190,26.016430 10.127245,48.016289 10.159146,70.475189 
	C9.732060,71.298615 9.232129,71.663010 8.397000,72.002121 
	C8.010848,49.622395 7.959893,27.267956 7.839853,4.449872 
	C8.284575,3.685944 8.798380,3.385658 9.660771,3.340216 
	C10.009357,3.595059 10.209135,4.016569 10.209135,4.016569 
z"/>
<path fill="#DDCCAF" opacity="1.000000" stroke="none" 
	d="
M569.993347,3.960165 
	C570.719177,3.631027 571.445923,3.012764 572.170654,3.015282 
	C587.911926,3.069956 603.653015,3.193779 619.522095,3.860360 
	C618.433716,4.947612 617.217285,5.478797 615.603638,5.994739 
	C613.675659,5.882572 612.145081,5.785650 610.278442,5.471446 
	C608.703979,5.453423 607.465515,5.652682 606.058716,5.601723 
	C605.001648,5.800596 604.112732,6.249690 602.772705,6.786754 
	C599.757263,7.119894 597.172791,7.688040 594.633789,7.529149 
	C591.400757,7.326823 588.204590,6.536127 584.607300,5.838775 
	C582.476562,5.439367 580.734131,5.174150 578.984863,4.966961 
	C575.989990,4.612238 572.990723,4.293827 569.993347,3.960165 
z"/>
<path fill="#A47930" opacity="1.000000" stroke="none" 
	d="
M654.112183,71.586182 
	C653.565125,72.045120 653.101379,72.037888 652.305664,71.550415 
	C651.952332,48.728554 651.930969,26.386925 651.988892,3.822454 
	C652.068176,3.599612 652.163208,3.136185 652.163208,3.136183 
	C652.871582,4.479415 654.190796,5.819815 654.197083,7.166306 
	C654.295959,28.483751 654.226440,49.801975 654.112183,71.586182 
z"/>
<path fill="#DDCCAF" opacity="1.000000" stroke="none" 
	d="
M40.018597,4.115947 
	C40.548439,3.766222 41.079075,3.109889 41.608006,3.111263 
	C58.213245,3.154380 74.818321,3.261518 91.431931,3.967404 
	C87.989807,4.692013 84.523193,4.651747 81.096428,5.001622 
	C79.737083,5.140411 78.466133,6.144959 76.876816,6.890662 
	C74.710579,6.687451 72.822456,6.348916 70.593895,6.018876 
	C69.240067,6.305223 68.226692,6.583075 66.859482,6.853154 
	C65.669754,6.560670 64.833862,6.275959 63.817986,5.651321 
	C61.917496,5.561090 60.196987,5.810786 58.480019,6.030173 
	C58.483562,5.999865 58.542759,6.014704 58.162289,6.000591 
	C56.821434,5.690992 55.861050,5.395506 54.550636,5.065577 
	C53.500240,5.059646 52.799870,5.088158 51.704636,5.127247 
	C49.207859,5.416510 47.105946,5.695196 44.705711,5.788540 
	C42.944458,5.107448 41.481525,4.611698 40.018597,4.115947 
z"/>
<path fill="#DDCCAF" opacity="1.000000" stroke="none" 
	d="
M651.687012,3.067877 
	C652.163208,3.136185 652.068176,3.599612 651.552124,3.808301 
	C648.049072,4.292531 645.062012,4.568070 641.764709,5.129942 
	C641.262268,6.517306 641.070129,7.618337 640.838135,8.789810 
	C640.798279,8.860253 640.499146,9.005069 640.353882,8.673364 
	C638.515259,8.901780 636.821838,9.461901 634.765503,10.028152 
	C633.918945,10.050876 633.435364,10.067468 632.913513,9.770203 
	C632.171814,8.454305 631.468384,7.452261 631.057617,6.331645 
	C631.572144,6.002742 631.809326,5.805222 632.004089,5.572219 
	C632.047424,5.520405 631.966064,5.255902 631.900085,5.237099 
	C630.260315,4.769900 628.614929,4.322558 626.970520,3.871701 
	C632.927551,3.566354 638.883240,3.229380 644.842346,2.972615 
	C646.960815,2.881334 649.087708,2.984932 651.687012,3.067877 
z"/>
<path fill="#BD9C5C" opacity="1.000000" stroke="none" 
	d="
M569.597168,3.957338 
	C572.990723,4.293827 575.989990,4.612238 578.984863,4.966961 
	C580.734131,5.174150 582.476562,5.439367 584.357422,6.184304 
	C576.908386,6.690132 569.323853,6.690132 561.739380,6.690132 
	C561.750427,6.400850 561.761475,6.111567 561.772522,5.822286 
	C563.205994,5.220853 564.639404,4.619421 566.072876,4.017989 
	C566.072876,4.017991 566.005676,4.050984 566.018860,4.086466 
	C567.088318,4.066135 568.144653,4.010323 569.597168,3.957338 
z"/>
<path fill="#BD9C5C" opacity="1.000000" stroke="none" 
	d="
M77.154938,6.755337 
	C78.466133,6.144959 79.737083,5.140411 81.096428,5.001622 
	C84.523193,4.651747 87.989807,4.692013 91.723984,4.269058 
	C93.062836,3.994923 94.118164,4.027647 95.569687,4.089233 
	C95.965881,4.118096 95.992378,4.048244 96.058975,4.371340 
	C97.334740,5.260272 98.543900,5.826108 100.529610,6.755337 
	C92.125488,6.755337 84.640213,6.755337 77.154938,6.755337 
z"/>
<path fill="#CAA971" opacity="1.000000" stroke="none" 
	d="
M626.537354,3.878350 
	C628.614929,4.322558 630.260315,4.769900 631.900085,5.237099 
	C631.966064,5.255902 632.047424,5.520405 632.004089,5.572219 
	C631.809326,5.805222 631.572144,6.002742 630.654663,6.263263 
	C625.294006,6.580146 620.628967,6.846838 615.975952,6.837666 
	C615.992188,6.377859 615.996521,6.193917 616.000916,6.009978 
	C617.217285,5.478797 618.433716,4.947612 619.842407,4.129160 
	C622.057861,3.856262 624.081055,3.870631 626.537354,3.878350 
z"/>
<path fill="#BD9C5C" opacity="1.000000" stroke="none" 
	d="
M39.684372,4.060561 
	C41.481525,4.611698 42.944458,5.107448 44.699936,6.005869 
	C44.992481,6.408540 44.986542,6.842779 44.686127,6.908330 
	C44.181564,6.955342 43.977417,6.936803 43.641144,6.920093 
	C43.509026,6.921923 43.246185,6.894502 43.184769,6.925447 
	C43.123356,6.956392 43.036293,6.849911 42.940414,6.714910 
	C42.528797,6.364030 42.258900,6.423685 41.593727,6.800228 
	C39.093983,6.726860 37.035347,6.612138 34.665497,6.330125 
	C32.904934,6.211106 31.455587,6.259377 29.857742,6.147004 
	C29.480240,5.790403 29.339174,5.544157 29.637987,5.193195 
	C30.928804,5.027014 31.867685,4.915260 33.202385,4.869943 
	C35.066753,4.661233 36.535297,4.386086 38.003841,4.110938 
	C38.452610,4.075683 38.901382,4.040429 39.684372,4.060561 
z"/>
<path fill="#DDCCAF" opacity="1.000000" stroke="none" 
	d="
M19.964636,4.925286 
	C18.450510,4.467302 16.936382,4.009318 15.203424,3.273569 
	C17.123108,3.103776 19.261623,3.211749 21.894020,3.894002 
	C23.597530,4.709171 24.807161,4.950061 25.965340,5.476480 
	C25.315016,6.170082 24.716145,6.578156 23.734467,6.983846 
	C22.850952,7.056941 22.350248,7.132420 21.610664,7.197893 
	C21.371788,7.187889 20.905300,7.082808 20.907570,6.775809 
	C20.882774,6.265934 20.855709,6.063059 20.757530,5.650791 
	C20.460976,5.248174 20.220383,5.076138 19.964636,4.925286 
z"/>
<path fill="#DDCCAF" opacity="1.000000" stroke="none" 
	d="
M37.753456,3.783452 
	C36.535297,4.386086 35.066753,4.661233 32.943089,4.626712 
	C30.800930,4.214518 29.313894,4.111992 27.826857,4.009467 
	C31.052263,3.824966 34.277668,3.640466 37.753456,3.783452 
z"/>
<path fill="#EFEBE4" opacity="1.000000" stroke="none" 
	d="
M10.541392,4.008762 
	C10.209135,4.016569 10.009357,3.595059 9.976110,3.364219 
	C11.146812,2.914833 12.350763,2.696288 13.775103,2.738823 
	C12.954879,3.333588 11.914264,3.667272 10.541392,4.008762 
z"/>
<path fill="#EFEBE4" opacity="1.000000" stroke="none" 
	d="
M27.649366,3.985611 
	C29.313894,4.111992 30.800930,4.214518 32.547264,4.560274 
	C31.867685,4.915260 30.928804,5.027014 29.327749,5.137396 
	C28.456041,5.140162 28.246508,5.144302 27.719681,5.099083 
	C27.190729,5.017675 26.979069,4.985626 26.818409,4.693851 
	C26.950848,4.277581 27.032280,4.121037 27.113714,3.964492 
	C27.113714,3.964492 27.471876,3.961756 27.649366,3.985611 
z"/>
<path fill="#BD9C5C" opacity="1.000000" stroke="none" 
	d="
M26.684013,3.939643 
	C27.032280,4.121037 26.950848,4.277581 26.620836,4.720512 
	C26.372259,5.006899 26.016794,5.190952 26.016794,5.190951 
	C24.807161,4.950061 23.597530,4.709171 22.182053,4.155380 
	C23.402243,3.866585 24.828278,3.890690 26.684013,3.939643 
z"/>
<path fill="#F2F3F2" opacity="1.000000" stroke="none" 
	d="
M43.773266,6.918263 
	C43.977417,6.936803 44.181564,6.955342 45.129761,6.967256 
	C47.953007,6.893914 50.032215,6.827198 52.457100,6.788571 
	C53.495510,6.792820 54.188240,6.768978 55.266346,6.859564 
	C56.615398,6.654228 57.579079,6.334466 58.542759,6.014704 
	C58.542759,6.014704 58.483562,5.999865 58.947166,6.088598 
	C60.939838,6.115304 62.468903,6.053276 63.997967,5.991248 
	C64.833862,6.275959 65.669754,6.560670 67.212021,6.945841 
	C68.923706,6.700994 69.929024,6.355686 70.934341,6.010380 
	C72.822456,6.348916 74.710579,6.687451 76.876816,6.890662 
	C84.640213,6.755337 92.125488,6.755337 100.529610,6.755337 
	C98.543900,5.826108 97.334740,5.260272 96.024506,4.356949 
	C99.982956,4.024754 104.042480,4.030046 108.585808,4.357737 
	C109.091705,4.873571 109.113785,5.067006 109.346817,5.559051 
	C111.312187,6.147296 113.066154,6.686156 114.821098,6.689306 
	C142.578094,6.739120 170.335236,6.727959 198.092300,6.697303 
	C199.734177,6.695490 201.375732,6.410207 203.459839,6.404249 
	C204.731308,6.606239 205.560364,6.708527 206.389435,6.708609 
	C281.441925,6.716040 356.494415,6.718326 431.546906,6.696158 
	C433.025116,6.695722 434.503235,6.402402 436.429382,6.406001 
	C474.240723,6.620609 511.604126,6.690118 548.967468,6.666096 
	C550.273621,6.665256 551.579163,5.733018 552.912964,4.948825 
	C552.951538,4.471426 552.962036,4.280091 552.972595,4.088756 
	C557.026794,4.061056 561.080933,4.033356 565.604004,4.011822 
	C564.639404,4.619421 563.205994,5.220853 561.772522,5.822286 
	C561.761475,6.111567 561.750427,6.400850 561.739380,6.690132 
	C569.323853,6.690132 576.908386,6.690132 584.742676,6.344602 
	C588.204590,6.536127 591.400757,7.326823 594.633789,7.529149 
	C597.172791,7.688040 599.757263,7.119894 603.141724,6.840569 
	C604.697754,6.754220 605.433716,6.702024 606.539795,6.697311 
	C607.904175,6.748086 608.898499,6.751378 610.314453,6.870256 
	C612.478760,7.028404 614.221313,7.070966 615.963928,7.113529 
	C620.628967,6.846838 625.294006,6.580146 630.362000,6.381836 
	C631.468384,7.452261 632.171814,8.454305 632.807007,10.023611 
	C632.489380,11.281233 632.239990,11.971591 631.767090,12.747423 
	C631.355042,13.226496 631.166504,13.620091 631.002808,14.366471 
	C631.436035,15.528786 631.844482,16.338316 632.180725,17.341536 
	C632.108582,17.535225 632.133545,17.947865 631.786987,18.006630 
	C630.850403,19.393118 629.444824,21.548788 629.809204,21.907759 
	C631.549133,23.621723 633.769287,24.848108 635.872559,26.622475 
	C635.892822,28.004488 635.859253,29.011900 635.364868,30.022011 
	C633.938049,31.217497 632.405334,32.290428 632.122498,33.627743 
	C631.513489,36.506359 632.050537,39.672195 631.215698,42.449078 
	C629.382629,48.546822 632.141541,56.419250 623.370789,59.941090 
	C626.498230,60.629780 628.390259,61.046410 630.383240,61.720245 
	C631.324341,62.313789 632.164429,62.650124 633.138184,63.266747 
	C633.013611,68.376434 629.598450,62.940670 628.524841,65.081047 
	C630.845947,68.686592 627.738464,67.813606 625.556519,68.048943 
	C624.332947,68.166649 623.520203,68.287956 622.259705,68.373856 
	C618.988647,68.194366 616.132935,67.717056 613.349976,67.987473 
	C609.556335,68.356094 605.817993,69.294876 601.646729,69.998199 
	C596.832275,69.346306 592.427063,68.685410 587.848755,67.799881 
	C587.122742,68.035934 586.569885,68.496620 585.680603,68.968445 
	C584.895264,68.985397 584.446411,68.991211 583.901550,68.603645 
	C577.073303,67.993591 570.341248,67.766281 563.607483,67.617416 
	C563.426758,67.613426 563.227356,68.458755 562.672302,68.920334 
	C561.541992,69.636856 560.776001,70.341072 560.010071,71.045288 
	C557.959717,71.056625 555.909424,71.067963 553.411621,70.768997 
	C552.641541,69.972992 552.318970,69.487282 551.528076,69.010422 
	C544.913940,69.019157 538.768127,69.011322 532.622314,69.020164 
	C495.085632,69.074173 457.548920,69.131981 419.546692,69.125900 
	C345.213867,69.049484 271.346588,69.035172 197.479294,69.028603 
	C196.650360,69.028526 195.821442,69.129196 194.527420,69.125755 
	C167.564285,69.056160 141.066223,69.027084 114.568283,69.073830 
	C113.039864,69.076523 111.512520,69.696007 109.987717,70.286255 
	C109.998650,70.715790 110.006554,70.887497 110.014458,71.059212 
	C107.637314,71.059090 105.260178,71.058975 102.402336,70.684036 
	C100.928772,69.834900 99.935898,69.360573 98.853607,68.504868 
	C92.162552,67.862442 85.561462,67.579422 78.957458,67.411232 
	C78.656670,67.403572 78.329506,68.431183 77.751053,68.993790 
	C77.311745,69.021935 77.136009,69.032890 76.713638,69.011139 
	C76.467018,68.978424 75.975662,68.895996 75.936829,68.611877 
	C75.583748,68.031792 75.269508,67.735832 74.955269,67.439873 
	C74.652336,67.926300 74.349403,68.412735 73.647446,68.924988 
	C67.332108,69.880409 61.522488,70.781166 55.715111,67.874748 
	C52.940300,66.486038 49.509544,65.465286 46.580303,68.777084 
	C40.804222,68.602798 35.417797,68.551643 29.932533,68.188217 
	C28.536810,67.207520 27.239923,66.539101 26.051651,65.645630 
	C26.533819,64.995110 26.907375,64.569633 27.494717,63.782978 
	C29.009230,62.753456 30.334829,62.123608 31.557186,61.333954 
	C31.642691,61.278709 31.123940,59.871342 30.610334,59.382637 
	C28.987621,57.838573 27.233707,56.432392 25.728079,54.544853 
	C25.873697,42.821800 25.821785,31.526772 25.769875,20.231743 
	C25.769875,20.231743 25.874903,20.125982 26.293581,20.008720 
	C28.413734,18.565825 30.728188,17.575478 31.678131,15.838768 
	C33.242298,12.979133 33.923370,9.636461 34.976715,6.497415 
	C37.035347,6.612138 39.093983,6.726860 41.838524,6.884037 
	C42.695057,6.900964 42.865677,6.875437 43.036293,6.849911 
	C43.036293,6.849911 43.123356,6.956392 43.209324,7.107060 
	C43.386677,7.420321 43.478062,7.582913 43.569443,7.745505 
	C43.637383,7.469758 43.705322,7.194010 43.773266,6.918263 
M31.735241,66.112404 
	C31.467529,65.830833 31.205706,65.542801 30.919062,65.282036 
	C30.899622,65.264343 30.693451,65.451927 30.574125,65.544044 
	C30.856579,65.841789 31.139032,66.139542 31.735241,66.112404 
z"/>
<path fill="#F2F1EF" opacity="1.000000" stroke="none" 
	d="
M635.818726,26.247877 
	C633.769287,24.848108 631.549133,23.621723 629.809204,21.907759 
	C629.444824,21.548788 630.850403,19.393118 632.128540,18.037066 
	C633.567810,17.684881 634.318848,17.361025 635.036926,17.022877 
	C635.003906,17.008583 635.020508,17.078594 635.391113,17.050091 
	C637.018677,16.346516 638.275696,15.671446 639.870117,15.039599 
	C641.907166,14.738674 643.606750,14.394526 645.190918,14.073761 
	C644.872009,12.531481 644.525635,10.856076 644.466187,9.169883 
	C645.089905,8.809628 645.426575,8.460163 645.746460,7.749137 
	C645.443481,6.659932 645.157288,5.932286 644.517456,5.160120 
	C643.451843,5.133533 642.739929,5.151467 642.092590,5.095560 
	C642.157104,5.021719 642.075012,4.843609 642.075012,4.843609 
	C645.062012,4.568070 648.049072,4.292531 651.472839,4.031144 
	C651.930969,26.386925 651.952332,48.728554 651.957764,71.539352 
	C646.587769,71.333626 641.233582,70.658722 635.592163,69.741806 
	C635.604553,69.301537 635.904297,69.103279 636.532349,68.911919 
	C637.576538,68.625130 638.292542,68.331459 638.994690,68.024628 
	C638.980896,68.011467 638.989990,68.050392 639.584961,68.171997 
	C640.582886,68.252724 640.985718,68.211838 641.384399,68.144577 
	C641.380188,68.118195 641.443359,68.034042 641.826355,68.195068 
	C643.341064,68.007370 644.472839,67.658630 645.604553,67.309891 
	C645.077209,66.851974 644.549805,66.394051 643.965454,65.660507 
	C643.877991,65.199730 643.847473,65.014580 643.886597,64.626724 
	C643.956177,64.424026 643.971680,63.995682 644.022522,63.636505 
	C642.630188,61.707291 641.285767,59.648495 638.711243,62.132011 
	C638.013977,61.940742 637.604797,61.869667 637.195007,61.590881 
	C637.194336,61.383175 637.145996,60.970573 637.240723,60.893330 
	C637.335449,60.816086 637.400269,60.577332 637.628906,60.264698 
	C636.240234,56.440395 634.498779,56.128696 632.087524,59.072422 
	C631.525269,59.786716 631.306824,60.409397 630.885010,61.136520 
	C630.681763,61.240955 630.282227,61.463032 630.282227,61.463036 
	C628.390259,61.046410 626.498230,60.629780 623.370789,59.941090 
	C632.141541,56.419250 629.382629,48.546822 631.215698,42.449078 
	C632.050537,39.672195 631.513489,36.506359 632.122498,33.627743 
	C632.405334,32.290428 633.938049,31.217497 635.439575,30.396040 
	C635.993286,37.763847 636.095520,44.761559 635.992981,51.756268 
	C635.944031,55.092991 637.272522,55.911724 640.777954,54.547215 
	C640.777954,42.559719 640.777954,30.408266 640.777954,18.405676 
	C634.950012,17.588362 636.434570,22.671726 635.818726,26.247877 
M642.770874,69.433472 
	C642.581848,69.411438 642.392883,69.389404 642.203857,69.367378 
	C642.286194,69.482819 642.368591,69.598259 642.770874,69.433472 
z"/>
<path fill="#EAE3D7" opacity="1.000000" stroke="none" 
	d="
M110.317230,71.340317 
	C110.006554,70.887497 109.998650,70.715790 110.457573,70.278816 
	C138.947113,69.958153 166.969833,69.902740 195.458603,69.903282 
	C264.800507,69.971245 333.676331,69.986969 402.552185,69.988571 
	C408.372437,69.988708 414.192719,69.894310 420.477936,69.897476 
	C463.257721,69.967728 505.572571,69.993721 547.887329,69.958862 
	C549.257324,69.957733 550.626709,69.334694 551.996399,69.001572 
	C552.318970,69.487282 552.641541,69.972992 552.972290,70.773956 
	C551.234802,71.392403 549.489380,71.960571 547.743774,71.961082 
	C403.682068,72.003403 259.620361,72.002876 115.558647,71.987190 
	C113.912415,71.987007 112.266212,71.748611 110.317230,71.340317 
z"/>
<path fill="#EAE3D7" opacity="1.000000" stroke="none" 
	d="
M98.943031,68.886246 
	C99.935898,69.360573 100.928772,69.834900 101.957108,70.671860 
	C101.428787,71.340714 100.864151,71.915939 100.301315,71.914192 
	C81.417274,71.855331 62.533405,71.741501 43.686775,71.285942 
	C44.941883,70.602852 46.168941,70.298073 47.369373,69.910767 
	C47.595322,69.837868 47.715126,69.435959 47.883907,69.185875 
	C47.579258,69.090660 47.274609,68.995438 46.969959,68.900215 
	C49.509544,65.465286 52.940300,66.486038 55.715111,67.874748 
	C61.522488,70.781166 67.332108,69.880409 73.889481,68.960159 
	C74.530540,68.969513 75.018173,69.017357 75.118858,69.267624 
	C75.678497,69.768562 76.137444,70.019234 76.596397,70.269897 
	C76.717690,69.861214 76.838982,69.452530 76.960266,69.043846 
	C77.136009,69.032890 77.311745,69.021935 78.208580,69.001656 
	C82.305031,69.014114 85.680397,69.035896 89.146667,69.292763 
	C89.854523,69.662880 90.471451,69.797897 91.453934,69.945084 
	C94.194000,69.600243 96.568512,69.243240 98.943031,68.886246 
z"/>
<path fill="#EAE3D7" opacity="1.000000" stroke="none" 
	d="
M588.021912,68.024506 
	C592.427063,68.685410 596.832275,69.346306 602.058228,70.026031 
	C608.562622,70.440987 614.246155,70.837120 619.929688,71.233246 
	C614.204834,71.488808 608.475708,72.018112 602.756165,71.929802 
	C595.793579,71.822304 588.886719,72.849861 581.866943,72.124725 
	C574.838806,71.398758 567.700195,71.742271 560.310059,71.331146 
	C560.776001,70.341072 561.541992,69.636856 563.077759,68.957001 
	C570.564209,68.986580 577.280884,68.991798 583.997559,68.997017 
	C584.446411,68.991211 584.895264,68.985397 585.974854,68.959366 
	C587.077759,68.634254 587.549805,68.329376 588.021912,68.024506 
z"/>
<path fill="#EAE3D7" opacity="1.000000" stroke="none" 
	d="
M25.943035,65.870674 
	C27.239923,66.539101 28.536810,67.207520 29.660027,68.332672 
	C29.354633,68.877663 29.197769,68.944443 29.098557,69.060501 
	C29.007067,69.167526 28.977474,69.327461 28.920612,69.464081 
	C31.280918,69.974548 33.641224,70.485016 36.001530,70.995483 
	C35.884594,71.110176 35.774353,71.317253 35.649765,71.326294 
	C29.777033,71.751785 23.903053,72.160103 18.973690,72.504402 
	C18.208481,70.642586 17.883198,69.851143 17.255655,69.009499 
	C17.444565,67.659180 17.935734,66.359070 19.146482,65.019806 
	C20.635101,64.982430 21.404137,64.984192 22.328873,65.302910 
	C23.637392,65.703468 24.790213,65.787071 25.943035,65.870674 
z"/>
<path fill="#CAA971" opacity="1.000000" stroke="none" 
	d="
M620.341919,71.169327 
	C614.246155,70.837120 608.562622,70.440987 602.467529,70.017029 
	C605.817993,69.294876 609.556335,68.356094 613.349976,67.987473 
	C616.132935,67.717056 618.988647,68.194366 622.417969,68.678146 
	C624.329468,69.374207 625.634949,69.730568 626.947510,70.082123 
	C626.954529,70.077332 626.914185,70.099442 626.914185,70.099442 
	C624.860840,70.434761 622.807556,70.770088 620.341919,71.169327 
z"/>
<path fill="#EAE3D7" opacity="1.000000" stroke="none" 
	d="
M636.204041,68.905022 
	C635.904297,69.103279 635.604553,69.301537 635.168030,69.733063 
	C632.590210,69.982567 630.149109,69.998802 627.311157,70.057236 
	C626.914185,70.099442 626.954529,70.077332 626.871948,69.807632 
	C626.515320,69.042809 626.241333,68.547676 625.967346,68.052536 
	C627.738464,67.813606 630.845947,68.686592 628.524841,65.081047 
	C629.598450,62.940670 633.013611,68.376434 633.642517,63.184818 
	C634.692688,62.774471 635.372131,62.726330 635.808105,63.016251 
	C636.706299,64.919670 637.848145,66.485039 638.989990,68.050400 
	C638.989990,68.050392 638.980896,68.011467 638.681458,67.995438 
	C637.656006,68.287941 636.930054,68.596474 636.204041,68.905022 
M634.486023,67.580612 
	C634.486023,67.580612 634.423889,67.471794 634.486023,67.580612 
z"/>
<path fill="#CAA971" opacity="1.000000" stroke="none" 
	d="
M36.439583,70.962952 
	C33.641224,70.485016 31.280918,69.974548 28.920612,69.464081 
	C28.977474,69.327461 29.007067,69.167526 29.098557,69.060501 
	C29.197769,68.944443 29.354633,68.877663 29.758863,68.644943 
	C35.417797,68.551643 40.804222,68.602798 46.580303,68.777084 
	C47.274609,68.995438 47.579258,69.090660 47.883907,69.185875 
	C47.715126,69.435959 47.595322,69.837868 47.369373,69.910767 
	C46.168941,70.298073 44.941883,70.602852 43.379314,71.010246 
	C40.982265,71.033005 38.929951,70.981712 36.439583,70.962952 
z"/>
<path fill="#A36E1A" opacity="1.000000" stroke="none" 
	d="
M25.370644,20.191711 
	C25.821785,31.526772 25.873697,42.821800 25.383139,54.555923 
	C24.556379,56.012230 24.272089,57.029442 23.987797,58.046654 
	C23.168739,56.236874 21.692478,54.445694 21.640654,52.614204 
	C21.368704,43.003674 21.522917,33.381954 21.378307,23.766392 
	C21.337940,21.082386 21.942656,19.543520 25.370644,20.191711 
z"/>
<path fill="#E0D2BB" opacity="1.000000" stroke="none" 
	d="
M34.665497,6.330125 
	C33.923370,9.636461 33.242298,12.979133 31.678131,15.838768 
	C30.728188,17.575478 28.413734,18.565825 26.346088,19.955835 
	C25.193485,18.636156 24.407051,17.252102 23.323727,15.399818 
	C23.044563,14.256161 23.062290,13.580730 23.432060,12.935762 
	C24.855858,12.456520 25.927614,11.946816 27.596237,11.153255 
	C26.046392,10.207236 25.031746,9.587899 23.990852,8.637451 
	C24.015497,7.866304 24.066387,7.426267 24.117275,6.986230 
	C24.716145,6.578156 25.315016,6.170082 25.965340,5.476480 
	C26.016794,5.190952 26.372259,5.006899 26.569832,4.980238 
	C26.979069,4.985626 27.190729,5.017675 27.713522,5.409955 
	C28.339128,6.379573 28.653603,6.988960 28.968075,7.598347 
	C29.314129,7.168114 29.660183,6.737881 30.006239,6.307649 
	C31.455587,6.259377 32.904934,6.211106 34.665497,6.330125 
M27.226614,13.779642 
	C27.348408,13.946906 27.470201,14.114169 27.591997,14.281432 
	C27.566523,14.045329 27.541046,13.809226 27.226614,13.779642 
z"/>
<path fill="#C7A163" opacity="1.000000" stroke="none" 
	d="
M23.990105,58.020706 
	C24.272089,57.029442 24.556379,56.012230 25.185610,54.983948 
	C27.233707,56.432392 28.987621,57.838573 30.610334,59.382637 
	C31.123940,59.871342 31.642691,61.278709 31.557186,61.333954 
	C30.334829,62.123608 29.009230,62.753456 27.247356,63.694412 
	C26.181190,63.354118 25.576170,62.741222 24.745920,61.847008 
	C23.592834,61.331711 22.664978,61.097736 21.737120,60.863758 
	C22.225428,60.558216 22.713736,60.252674 23.821951,59.973923 
	C25.034206,59.836040 25.626556,59.671371 27.238895,59.223148 
	C25.407442,58.543808 24.674397,58.271900 23.941349,57.999992 
	C23.941349,57.999996 23.992413,57.994759 23.990105,58.020706 
z"/>
<path fill="#BD9C5C" opacity="1.000000" stroke="none" 
	d="
M23.080017,12.905301 
	C23.062290,13.580730 23.044563,14.256161 23.014835,15.239632 
	C21.000046,15.161085 18.997253,14.774497 16.678062,14.326836 
	C16.966431,13.561433 17.334576,12.584285 18.218639,11.261614 
	C19.871969,10.657210 21.009380,10.398330 22.322193,10.327971 
	C22.691738,11.312761 22.885878,12.109032 23.080017,12.905301 
z"/>
<path fill="#BD9C5C" opacity="1.000000" stroke="none" 
	d="
M21.371895,60.931236 
	C22.664978,61.097736 23.592834,61.331711 24.465511,61.865623 
	C23.961695,62.683533 23.513058,63.201504 23.041145,64.029419 
	C23.019266,64.546570 23.020664,64.753769 22.810745,64.997993 
	C22.599428,65.035011 22.173174,64.985954 22.173174,64.985947 
	C21.404137,64.984192 20.635101,64.982430 19.481932,64.978119 
	C19.734089,63.649956 20.370380,62.324333 21.371895,60.931236 
z"/>
<path fill="#CAA971" opacity="1.000000" stroke="none" 
	d="
M20.828646,5.860184 
	C20.855709,6.063059 20.882774,6.265934 20.644028,6.794059 
	C19.905842,7.299781 19.433466,7.480254 18.637699,7.700533 
	C17.682049,7.891396 17.049791,8.042454 16.417538,8.193512 
	C16.429092,7.245704 16.440647,6.297897 17.041813,5.491203 
	C18.697163,5.708272 19.762905,5.784228 20.828646,5.860184 
z"/>
<path fill="#E0D2BB" opacity="1.000000" stroke="none" 
	d="
M22.146791,10.139449 
	C21.009380,10.398330 19.871969,10.657210 18.390450,10.981457 
	C17.773792,10.565408 17.501247,10.083996 17.435364,9.341157 
	C18.088064,9.012627 18.534103,8.945522 19.371017,8.774694 
	C20.496124,8.810527 21.230350,8.950082 21.978708,9.058541 
	C21.992838,9.027446 21.927031,9.010128 22.042629,9.280655 
	C22.154413,9.747272 22.150602,9.943360 22.146791,10.139449 
z"/>
<path fill="#A36E1A" opacity="1.000000" stroke="none" 
	d="
M23.967754,58.332031 
	C24.674397,58.271900 25.407442,58.543808 27.238895,59.223148 
	C25.626556,59.671371 25.034206,59.836040 24.128115,59.989479 
	C23.874302,59.540184 23.934231,59.102131 23.967754,58.332031 
z"/>
<path fill="#A47930" opacity="1.000000" stroke="none" 
	d="
M20.757530,5.650791 
	C19.762905,5.784228 18.697163,5.708272 17.397156,5.412859 
	C17.864529,5.138739 18.566168,5.084077 19.616222,4.977351 
	C20.220383,5.076138 20.460976,5.248174 20.757530,5.650791 
z"/>
<path fill="#A36E1A" opacity="1.000000" stroke="none" 
	d="
M18.980141,8.878418 
	C18.534103,8.945522 18.088064,9.012627 17.301485,9.098043 
	C16.738369,8.965743 16.537697,8.790110 16.388233,8.391483 
	C17.049791,8.042454 17.682049,7.891396 18.645588,8.006237 
	C18.977961,8.474231 18.979052,8.676325 18.980141,8.878418 
z"/>
<path fill="#FAFFFF" opacity="1.000000" stroke="none" 
	d="
M109.135864,5.260441 
	C109.113785,5.067006 109.091705,4.873571 109.050476,4.389724 
	C144.159164,4.066741 179.287003,4.008058 214.414825,4.006416 
	C326.959991,4.001154 439.505188,4.017009 552.511475,4.056735 
	C552.962036,4.280091 552.951538,4.471426 552.458862,4.873130 
	C513.318542,5.107982 474.660431,5.132464 435.537170,5.095984 
	C358.542603,5.022513 282.013245,5.009512 205.483902,5.003973 
	C204.654846,5.003913 203.825790,5.101436 202.531693,5.092935 
	C186.241898,5.017855 170.417068,4.962463 154.592438,5.000359 
	C139.440125,5.036645 124.288048,5.169839 109.135864,5.260441 
z"/>
<path fill="#A36E1A" opacity="1.000000" stroke="none" 
	d="
M609.892761,6.754670 
	C608.898499,6.751378 607.904175,6.748086 606.589294,6.566770 
	C606.315918,6.205005 606.302063,6.026070 606.226990,5.851941 
	C607.465515,5.652682 608.703979,5.453423 610.052734,5.709549 
	C610.072876,6.361514 609.982788,6.558092 609.892761,6.754670 
z"/>
<path fill="#C7A163" opacity="1.000000" stroke="none" 
	d="
M606.058716,5.601722 
	C606.302063,6.026070 606.315918,6.205005 606.219116,6.519287 
	C605.433716,6.702024 604.697754,6.754220 603.592896,6.752599 
	C604.112732,6.249690 605.001648,5.800596 606.058716,5.601722 
z"/>
<path fill="#C7A163" opacity="1.000000" stroke="none" 
	d="
M610.314453,6.870256 
	C609.982788,6.558092 610.072876,6.361514 610.388672,5.926831 
	C612.145081,5.785650 613.675659,5.882572 615.603638,5.994735 
	C615.996521,6.193917 615.992188,6.377859 615.975952,6.837665 
	C614.221313,7.070966 612.478760,7.028404 610.314453,6.870256 
z"/>
<path fill="#C7A163" opacity="1.000000" stroke="none" 
	d="
M52.111420,6.760481 
	C50.032215,6.827198 47.953007,6.893914 45.430172,6.901704 
	C44.986542,6.842779 44.992481,6.408540 44.998257,6.191211 
	C47.105946,5.695196 49.207859,5.416510 51.681389,5.400501 
	C52.072479,6.028946 52.091949,6.394713 52.111420,6.760481 
z"/>
<path fill="#A36E1A" opacity="1.000000" stroke="none" 
	d="
M52.457100,6.788571 
	C52.091949,6.394713 52.072479,6.028946 52.076256,5.389924 
	C52.799870,5.088158 53.500240,5.059646 54.592659,5.338261 
	C54.950130,6.011971 54.915554,6.378553 54.880974,6.745136 
	C54.188240,6.768978 53.495510,6.792820 52.457100,6.788571 
z"/>
<path fill="#A36E1A" opacity="1.000000" stroke="none" 
	d="
M63.817986,5.651321 
	C62.468903,6.053276 60.939838,6.115304 58.943626,6.118906 
	C60.196987,5.810786 61.917496,5.561090 63.817986,5.651321 
z"/>
<path fill="#C7A163" opacity="1.000000" stroke="none" 
	d="
M55.266346,6.859564 
	C54.915554,6.378553 54.950130,6.011971 54.942688,5.372705 
	C55.861050,5.395506 56.821434,5.690992 58.162289,6.000591 
	C57.579079,6.334466 56.615398,6.654228 55.266346,6.859564 
z"/>
<path fill="#A36E1A" opacity="1.000000" stroke="none" 
	d="
M70.593895,6.018875 
	C69.929024,6.355686 68.923706,6.700994 67.565849,6.953613 
	C68.226692,6.583075 69.240067,6.305223 70.593895,6.018875 
z"/>
<path fill="#A36E1A" opacity="1.000000" stroke="none" 
	d="
M635.128479,10.022025 
	C636.821838,9.461901 638.515259,8.901780 640.151855,8.883650 
	C640.062927,9.617109 640.030823,9.808577 639.822266,10.204072 
	C639.410095,11.239107 639.174316,12.070113 638.615601,12.982597 
	C637.490967,12.809760 636.689209,12.555447 635.606201,12.101093 
	C635.259460,11.274713 635.193970,10.648371 635.128479,10.022025 
z"/>
<path fill="#C7A163" opacity="1.000000" stroke="none" 
	d="
M644.871155,5.204637 
	C645.157288,5.932286 645.443481,6.659932 645.438843,7.728442 
	C644.528076,8.338646 643.908142,8.607985 643.117554,8.907104 
	C642.946899,8.936885 642.604431,8.989113 642.326843,8.806309 
	C641.658813,8.655461 641.268433,8.687419 640.877930,8.719372 
	C641.070129,7.618337 641.262268,6.517306 641.764709,5.129942 
	C642.075012,4.843609 642.157104,5.021719 642.291138,5.280878 
	C643.240540,5.428236 644.055847,5.316433 644.871155,5.204637 
z"/>
<path fill="#F1F0ED" opacity="1.000000" stroke="none" 
	d="
M634.765503,10.028156 
	C635.193970,10.648371 635.259460,11.274713 635.585083,12.169935 
	C635.845215,12.438816 635.931458,12.554213 635.554749,12.687291 
	C634.115540,12.767561 633.053101,12.714752 631.990601,12.661946 
	C632.239990,11.971591 632.489380,11.281233 632.845337,10.337467 
	C633.435364,10.067468 633.918945,10.050876 634.765503,10.028156 
z"/>
<path fill="#EAE3D7" opacity="1.000000" stroke="none" 
	d="
M640.838135,8.789815 
	C641.268433,8.687419 641.658813,8.655461 642.137451,9.150018 
	C641.483276,9.784370 640.740967,9.892210 639.998657,10.000047 
	C640.030823,9.808577 640.062927,9.617109 640.297119,9.215355 
	C640.499146,9.005069 640.798279,8.860253 640.838135,8.789815 
z"/>
<path fill="#DDCCAF" opacity="1.000000" stroke="none" 
	d="
M29.857742,6.147004 
	C29.660183,6.737881 29.314129,7.168114 28.968075,7.598347 
	C28.653603,6.988960 28.339128,6.379573 28.030815,5.459314 
	C28.246508,5.144302 28.456041,5.140162 28.975811,5.191822 
	C29.339174,5.544157 29.480240,5.790403 29.857742,6.147004 
z"/>
<path fill="#C7A163" opacity="1.000000" stroke="none" 
	d="
M43.641144,6.920093 
	C43.705322,7.194010 43.637383,7.469758 43.569443,7.745505 
	C43.478062,7.582913 43.386677,7.420321 43.270737,7.076116 
	C43.246185,6.894502 43.509026,6.921923 43.641144,6.920093 
z"/>
<path fill="#C7A163" opacity="1.000000" stroke="none" 
	d="
M42.940414,6.714910 
	C42.865677,6.875437 42.695057,6.900964 42.279636,6.842682 
	C42.258900,6.423685 42.528797,6.364030 42.940414,6.714910 
z"/>
<path fill="#A47930" opacity="1.000000" stroke="none" 
	d="
M19.371017,8.774694 
	C18.979052,8.676325 18.977961,8.474231 18.968981,7.966432 
	C19.433466,7.480254 19.905842,7.299781 20.641758,7.101058 
	C20.905300,7.082808 21.371788,7.187889 21.696331,7.506760 
	C22.002110,8.246966 21.983343,8.668302 21.964579,9.089637 
	C21.230350,8.950082 20.496124,8.810527 19.371017,8.774694 
z"/>
<path fill="#CAA971" opacity="1.000000" stroke="none" 
	d="
M21.978708,9.058541 
	C21.983343,8.668302 22.002110,8.246966 21.935209,7.516764 
	C22.350248,7.132420 22.850952,7.056941 23.734467,6.983847 
	C24.066387,7.426267 24.015497,7.866304 23.639908,8.609991 
	C22.852482,8.945804 22.389757,8.977965 21.927031,9.010128 
	C21.927031,9.010128 21.992838,9.027446 21.978708,9.058541 
z"/>
<path fill="#D4AE6D" opacity="1.000000" stroke="none" 
	d="
M202.996735,5.153406 
	C203.825790,5.101436 204.654846,5.003913 205.483902,5.003973 
	C282.013245,5.009512 358.542603,5.022513 435.536682,5.278996 
	C436.004974,5.764174 435.998322,6.005094 435.981415,6.245728 
	C434.503235,6.402402 433.025116,6.695722 431.546906,6.696158 
	C356.494415,6.718326 281.441925,6.716040 206.389435,6.708609 
	C205.560364,6.708527 204.731308,6.606239 203.451141,6.223630 
	C202.998184,5.648203 202.997070,5.400806 202.996735,5.153406 
z"/>
<path fill="#CAA971" opacity="1.000000" stroke="none" 
	d="
M436.429382,6.406003 
	C435.998322,6.005094 436.004974,5.764174 436.001892,5.339959 
	C474.660431,5.132464 513.318542,5.107982 552.430786,5.159194 
	C551.579163,5.733018 550.273621,6.665256 548.967468,6.666096 
	C511.604126,6.690118 474.240723,6.620609 436.429382,6.406003 
z"/>
<path fill="#D3AA62" opacity="1.000000" stroke="none" 
	d="
M420.012970,69.843826 
	C414.192719,69.894310 408.372437,69.988708 402.552185,69.988571 
	C333.676331,69.986969 264.800507,69.971245 195.459457,69.737389 
	C194.994247,69.515549 194.992508,69.182838 194.992508,69.182838 
	C195.821442,69.129196 196.650360,69.028526 197.479294,69.028603 
	C271.346588,69.035172 345.213867,69.049484 419.545502,69.289642 
	C420.009857,69.516006 420.012970,69.843826 420.012970,69.843826 
z"/>
<path fill="#AC7B29" opacity="1.000000" stroke="none" 
	d="
M635.872559,26.622478 
	C636.434570,22.671726 634.950012,17.588362 640.777954,18.405676 
	C640.777954,30.408266 640.777954,42.559719 640.777954,54.547215 
	C637.272522,55.911724 635.944031,55.092991 635.992981,51.756268 
	C636.095520,44.761559 635.993286,37.763847 635.900391,30.393341 
	C635.859253,29.011900 635.892822,28.004488 635.872559,26.622478 
z"/>
<path fill="#CAA971" opacity="1.000000" stroke="none" 
	d="
M202.531693,5.092936 
	C202.997070,5.400806 202.998184,5.648203 203.008743,6.076216 
	C201.375732,6.410207 199.734177,6.695490 198.092300,6.697303 
	C170.335236,6.727959 142.578094,6.739120 114.821098,6.689306 
	C113.066154,6.686156 111.312187,6.147296 109.346817,5.559051 
	C124.288048,5.169839 139.440125,5.036645 154.592438,5.000359 
	C170.417068,4.962463 186.241898,5.017855 202.531693,5.092936 
z"/>
<path fill="#C7A163" opacity="1.000000" stroke="none" 
	d="
M420.477936,69.897476 
	C420.012970,69.843826 420.009857,69.516006 420.011047,69.352264 
	C457.548920,69.131981 495.085632,69.074173 532.622314,69.020164 
	C538.768127,69.011322 544.913940,69.019157 551.528076,69.010422 
	C550.626709,69.334694 549.257324,69.957733 547.887329,69.958862 
	C505.572571,69.993721 463.257721,69.967728 420.477936,69.897476 
z"/>
<path fill="#C7A163" opacity="1.000000" stroke="none" 
	d="
M194.527420,69.125755 
	C194.992508,69.182838 194.994247,69.515549 194.993393,69.681442 
	C166.969833,69.902740 138.947113,69.958153 110.454544,70.020996 
	C111.512520,69.696007 113.039864,69.076523 114.568283,69.073830 
	C141.066223,69.027084 167.564285,69.056160 194.527420,69.125755 
z"/>
<path fill="#F6F8FB" opacity="1.000000" stroke="none" 
	d="
M583.901550,68.603645 
	C577.280884,68.991798 570.564209,68.986580 563.442139,68.944695 
	C563.227356,68.458755 563.426758,67.613426 563.607483,67.617416 
	C570.341248,67.766281 577.073303,67.993591 583.901550,68.603645 
z"/>
<path fill="#F8FAFE" opacity="1.000000" stroke="none" 
	d="
M89.055756,69.057671 
	C85.680397,69.035896 82.305031,69.014114 78.472153,68.984467 
	C78.329506,68.431183 78.656670,67.403572 78.957458,67.411232 
	C85.561462,67.579422 92.162552,67.862442 98.853607,68.504868 
	C96.568512,69.243240 94.194000,69.600243 91.268417,69.716919 
	C90.163483,69.336952 89.609619,69.197311 89.055756,69.057671 
z"/>
<path fill="#AC7B29" opacity="1.000000" stroke="none" 
	d="
M22.328873,65.302917 
	C22.173174,64.985954 22.599428,65.035011 23.003408,64.896774 
	C23.480238,64.631699 23.646231,64.448341 23.609587,64.387947 
	C23.461870,64.144493 23.251593,63.938995 23.064423,63.719479 
	C23.513058,63.201504 23.961695,62.683533 24.690739,62.146942 
	C25.576170,62.741222 26.181190,63.354118 27.033569,64.055580 
	C26.907375,64.569633 26.533819,64.995110 26.051651,65.645630 
	C24.790213,65.787071 23.637392,65.703468 22.328873,65.302917 
z"/>
<path fill="#BD9C5C" opacity="1.000000" stroke="none" 
	d="
M636.051636,62.678200 
	C635.372131,62.726330 634.692688,62.774471 633.508850,62.904533 
	C632.164429,62.650124 631.324341,62.313789 630.383240,61.720245 
	C630.282227,61.463032 630.681763,61.240955 631.312256,61.122097 
	C633.677185,60.992352 635.411621,60.981464 637.145996,60.970573 
	C637.145996,60.970573 637.194336,61.383175 637.050781,61.707527 
	C636.622070,62.247326 636.336853,62.462769 636.051636,62.678200 
z"/>
<path fill="#CAA971" opacity="1.000000" stroke="none" 
	d="
M632.252869,17.147846 
	C631.844482,16.338316 631.436035,15.528786 631.431519,14.366749 
	C633.264221,14.038898 634.693054,14.063554 636.092041,14.371296 
	C636.046631,14.844022 636.031006,15.033662 635.885559,15.464554 
	C635.510620,16.163399 635.265564,16.620993 635.020508,17.078590 
	C635.020508,17.078594 635.003906,17.008583 634.687988,16.944548 
	C633.665710,16.969624 632.959290,17.058735 632.252869,17.147846 
z"/>
<path fill="#E0D2BB" opacity="1.000000" stroke="none" 
	d="
M625.556519,68.048950 
	C626.241333,68.547676 626.515320,69.042809 626.864868,69.812431 
	C625.634949,69.730568 624.329468,69.374207 622.865723,68.713554 
	C623.520203,68.287956 624.332947,68.166649 625.556519,68.048950 
z"/>
<path fill="#BD9C5C" opacity="1.000000" stroke="none" 
	d="
M636.121826,14.088209 
	C634.693054,14.063554 633.264221,14.038898 631.406738,14.013966 
	C631.166504,13.620091 631.355042,13.226496 631.767090,12.747421 
	C633.053101,12.714752 634.115540,12.767561 635.658813,13.063982 
	C636.133728,13.567801 636.127747,13.828005 636.121826,14.088209 
z"/>
<path fill="#F6F8FB" opacity="1.000000" stroke="none" 
	d="
M587.848755,67.799881 
	C587.549805,68.329376 587.077759,68.634254 586.311401,68.948212 
	C586.569885,68.496620 587.122742,68.035934 587.848755,67.799881 
z"/>
<path fill="#F8FAFE" opacity="1.000000" stroke="none" 
	d="
M75.018173,69.017357 
	C75.018173,69.017357 74.530540,68.969513 74.288506,68.934341 
	C74.349403,68.412735 74.652336,67.926300 74.955269,67.439873 
	C75.269508,67.735832 75.583748,68.031792 75.698151,68.647507 
	C75.498306,68.967270 75.018173,69.017357 75.018173,69.017357 
z"/>
<path fill="#EAE3D7" opacity="1.000000" stroke="none" 
	d="
M31.578365,66.274841 
	C31.139032,66.139542 30.856579,65.841789 30.574123,65.544044 
	C30.693451,65.451927 30.899622,65.264343 30.919062,65.282036 
	C31.205706,65.542801 31.467529,65.830833 31.578365,66.274841 
z"/>
<path fill="#A36E1A" opacity="1.000000" stroke="none" 
	d="
M632.180725,17.341536 
	C632.959290,17.058735 633.665710,16.969624 634.721069,16.958839 
	C634.318848,17.361025 633.567810,17.684881 632.475098,17.978302 
	C632.133545,17.947865 632.108582,17.535225 632.180725,17.341536 
z"/>
<path fill="#E0D2BB" opacity="1.000000" stroke="none" 
	d="
M75.118858,69.267624 
	C75.018173,69.017357 75.498306,68.967270 75.736984,68.931633 
	C75.975662,68.895996 76.467018,68.978424 76.713638,69.011139 
	C76.838982,69.452530 76.717690,69.861214 76.596397,70.269897 
	C76.137444,70.019234 75.678497,69.768562 75.118858,69.267624 
z"/>
<path fill="#BD9C5C" opacity="1.000000" stroke="none" 
	d="
M639.822266,10.204075 
	C640.740967,9.892210 641.483276,9.784370 642.415039,9.332822 
	C642.604431,8.989113 642.946899,8.936885 643.348022,8.959272 
	C643.749207,8.981659 644.179199,9.180672 644.179199,9.180672 
	C644.525635,10.856076 644.872009,12.531481 645.190918,14.073761 
	C643.606750,14.394526 641.907166,14.738674 639.739258,15.111212 
	C639.270935,15.139600 638.994751,15.040861 639.031982,14.772144 
	C639.025696,13.969327 638.982117,13.435225 638.938599,12.901122 
	C639.174316,12.070113 639.410095,11.239107 639.822266,10.204075 
z"/>
<path fill="#A47930" opacity="1.000000" stroke="none" 
	d="
M635.808105,63.016258 
	C636.336853,62.462769 636.622070,62.247326 637.051514,61.915237 
	C637.604797,61.869667 638.013977,61.940742 638.676270,62.309891 
	C638.929443,62.607960 638.953796,62.969883 638.874634,63.226017 
	C639.168213,63.990635 639.541016,64.499115 640.000977,65.444702 
	C640.521606,66.644844 640.955139,67.407890 641.388672,68.170944 
	C640.985718,68.211838 640.582886,68.252724 639.584961,68.172012 
	C637.848145,66.485039 636.706299,64.919670 635.808105,63.016258 
z"/>
<path fill="#AC7B29" opacity="1.000000" stroke="none" 
	d="
M632.431274,58.980808 
	C634.498779,56.128696 636.240234,56.440395 637.289307,60.065498 
	C635.291077,59.779556 633.861206,59.380180 632.431274,58.980808 
z"/>
<path fill="#BD9C5C" opacity="1.000000" stroke="none" 
	d="
M638.953796,62.969887 
	C638.953796,62.969883 638.929443,62.607960 638.964417,62.430080 
	C641.285767,59.648495 642.630188,61.707291 643.652710,63.639500 
	C641.805969,63.657745 640.379883,63.313816 638.953796,62.969887 
z"/>
<path fill="#CAA971" opacity="1.000000" stroke="none" 
	d="
M632.087524,59.072422 
	C633.861206,59.380180 635.291077,59.779556 637.060669,60.378128 
	C637.400269,60.577332 637.335449,60.816086 637.240723,60.893330 
	C635.411621,60.981464 633.677185,60.992352 631.515564,61.017662 
	C631.306824,60.409397 631.525269,59.786716 632.087524,59.072422 
z"/>
<path fill="#E0D2BB" opacity="1.000000" stroke="none" 
	d="
M641.384399,68.144562 
	C640.955139,67.407890 640.521606,66.644844 640.393799,65.436165 
	C641.738708,64.936829 642.777893,64.883125 643.817017,64.829422 
	C643.847473,65.014580 643.877991,65.199730 643.659912,65.801407 
	C642.755371,66.823296 642.099365,67.428673 641.443359,68.034042 
	C641.443359,68.034042 641.380188,68.118195 641.384399,68.144562 
z"/>
<path fill="#CAA971" opacity="1.000000" stroke="none" 
	d="
M643.886597,64.626724 
	C642.777893,64.883125 641.738708,64.936829 640.306702,64.999069 
	C639.541016,64.499115 639.168213,63.990635 638.874634,63.226021 
	C640.379883,63.313816 641.805969,63.657745 643.601868,63.998676 
	C643.971680,63.995682 643.956177,64.424026 643.886597,64.626724 
z"/>
<path fill="#A47930" opacity="1.000000" stroke="none" 
	d="
M641.826355,68.195068 
	C642.099365,67.428673 642.755371,66.823296 643.716919,66.077026 
	C644.549805,66.394051 645.077209,66.851974 645.604553,67.309891 
	C644.472839,67.658630 643.341064,68.007370 641.826355,68.195068 
z"/>
<path fill="#A36E1A" opacity="1.000000" stroke="none" 
	d="
M635.391113,17.050085 
	C635.265564,16.620993 635.510620,16.163399 636.256836,15.423145 
	C637.503601,15.107277 638.249207,15.074069 638.994751,15.040861 
	C638.994751,15.040861 639.270935,15.139600 639.401794,15.067987 
	C638.275696,15.671446 637.018677,16.346516 635.391113,17.050085 
z"/>
<path fill="#A36E1A" opacity="1.000000" stroke="none" 
	d="
M644.466187,9.169884 
	C644.179199,9.180672 643.749207,8.981659 643.518677,8.929491 
	C643.908142,8.607985 644.528076,8.338646 645.455688,8.090002 
	C645.426575,8.460163 645.089905,8.809628 644.466187,9.169884 
z"/>
<path fill="#AC7B29" opacity="1.000000" stroke="none" 
	d="
M644.517456,5.160115 
	C644.055847,5.316433 643.240540,5.428236 642.226685,5.354719 
	C642.739929,5.151467 643.451843,5.133533 644.517456,5.160115 
z"/>
<path fill="#CAA971" opacity="1.000000" stroke="none" 
	d="
M636.532349,68.911911 
	C636.930054,68.596474 637.656006,68.287941 638.695251,68.008591 
	C638.292542,68.331459 637.576538,68.625130 636.532349,68.911911 
z"/>
<path fill="#CAA971" opacity="1.000000" stroke="none" 
	d="
M642.610901,69.573586 
	C642.368591,69.598259 642.286194,69.482819 642.203857,69.367371 
	C642.392883,69.389404 642.581848,69.411438 642.610901,69.573586 
z"/>
<path fill="#E0D2BB" opacity="1.000000" stroke="none" 
	d="
M89.146667,69.292763 
	C89.609619,69.197311 90.163483,69.336952 90.902863,69.704758 
	C90.471451,69.797897 89.854523,69.662880 89.146667,69.292763 
z"/>
<path fill="#F2F3F2" opacity="1.000000" stroke="none" 
	d="
M634.454956,67.526199 
	C634.423889,67.471794 634.486023,67.580612 634.454956,67.526199 
z"/>
<path fill="#A36E1A" opacity="1.000000" stroke="none" 
	d="
M22.042629,9.280655 
	C22.389757,8.977965 22.852482,8.945804 23.666153,8.941101 
	C25.031746,9.587899 26.046392,10.207236 27.596237,11.153255 
	C25.927614,11.946816 24.855858,12.456520 23.432060,12.935762 
	C22.885878,12.109032 22.691738,11.312761 22.322193,10.327971 
	C22.150602,9.943360 22.154413,9.747272 22.042629,9.280655 
z"/>
<path fill="#F2F3F2" opacity="1.000000" stroke="none" 
	d="
M27.371094,13.676382 
	C27.541046,13.809226 27.566523,14.045329 27.591997,14.281432 
	C27.470201,14.114169 27.348408,13.946906 27.371094,13.676382 
z"/>
<path fill="#CAA971" opacity="1.000000" stroke="none" 
	d="
M23.041143,64.029419 
	C23.251593,63.938995 23.461870,64.144493 23.609587,64.387947 
	C23.646231,64.448341 23.480238,64.631699 23.214725,64.859756 
	C23.020664,64.753769 23.019266,64.546570 23.041143,64.029419 
z"/>
<path fill="#DDCCAF" opacity="1.000000" stroke="none" 
	d="
M639.031982,14.772144 
	C638.249207,15.074069 637.503601,15.107277 636.386719,15.181894 
	C636.031006,15.033662 636.046631,14.844022 636.092041,14.371296 
	C636.127747,13.828005 636.133728,13.567801 636.035522,12.930904 
	C635.931458,12.554213 635.845215,12.438816 635.866333,12.369974 
	C636.689209,12.555447 637.490967,12.809760 638.615662,12.982599 
	C638.982117,13.435225 639.025696,13.969327 639.031982,14.772144 
z"/>
</svg>